<?xml version="1.0" encoding="utf-8"?>
<!-- Generator: Adobe Illustrator 28.2.0, SVG Export Plug-In . SVG Version: 6.00 Build 0)  -->
<svg version="1.1" id="Layer_1" xmlns="http://www.w3.org/2000/svg" xmlns:xlink="http://www.w3.org/1999/xlink" x="0px" y="0px"
	 viewBox="0 0 612 792" style="enable-background:new 0 0 612 792;" xml:space="preserve">
<style type="text/css">
	.st0{fill:#383838;}
	.st1{fill:#FFFFFF;}
	.st2{font-family:'Georgia';}
	.st3{font-size:67.917px;}
</style>
<g>
	<g>
		<text transform="matrix(1 0 0 1 119.1123 491.0977)" class="st1 st2 st3">Event Castle</text>
	</g>
	<g>
		<rect x="204.86" y="398.45" class="st1" width="202.5" height="15.22"/>
		<path class="st1" d="M249.69,395.32h-45.57l-40.98-67.67c8.65,0.1,36.91,2.09,62.25,22.31L249.69,395.32z"/>
		<path class="st1" d="M448.85,327.65l-40.98,67.67h-45.46l24.19-45.36l0.1-0.1C411.94,329.73,440.2,327.75,448.85,327.65z"/>
		<path class="st1" d="M406.1,306.9l-21.9,41.08l-25.34,47.34h-50.68l21.79-34.93l-7.51-11.99
			C354.38,309.61,395.78,306.9,406.1,306.9z"/>
		<path class="st1" d="M304.44,395.32h-51.2l-25.34-47.24l-22-41.19c10.43,0,52.03,2.71,83.94,42.02l-7.19,11.47L304.44,395.32z"/>
		<polygon class="st1" points="326.33,312.42 313.2,333.49 306.31,322.54 299.54,333.38 286.29,312.42 306.31,280.31 		"/>
		<polygon class="st1" points="326.33,360.39 306.31,392.4 286.29,360.39 293.7,348.71 293.59,348.61 299.54,339.22 306.31,328.38 
			313.2,339.33 318.72,348.19 		"/>
	</g>
</g>
</svg>
