<?xml version="1.0" encoding="utf-8"?>
<!-- Generator: Adobe Illustrator 28.2.0, SVG Export Plug-In . SVG Version: 6.00 Build 0)  -->
<svg version="1.1" id="Layer_1" xmlns="http://www.w3.org/2000/svg" xmlns:xlink="http://www.w3.org/1999/xlink" x="0px" y="0px"
	 viewBox="0 0 26.6 35" style="enable-background:new 0 0 26.6 35;" xml:space="preserve">
<style type="text/css">
	.st0{fill:#E91E63;}
</style>
<g>
	<path class="st0" d="M22,29.2L21.6,35H4.6v-0.7c0.3,0,0.6-0.1,1-0.1c0.5-0.1,0.9-0.1,1-0.2c0.3-0.2,0.6-0.4,0.7-0.7
		c0.1-0.2,0.2-0.6,0.2-1V17.3c0-0.4,0-0.7-0.2-0.9C7.3,16,7,15.8,6.6,15.6c-0.3-0.1-0.7-0.2-1.1-0.3c-0.4-0.1-0.7-0.1-0.9-0.2v-0.7
		h15.9v4.7h-0.8c-0.2-0.7-0.7-1.5-1.3-2.3c-0.7-0.9-1.4-1.4-2-1.4c-0.3,0-0.7-0.1-1.1-0.1s-0.9,0-1.5,0h-3.5V24h2.5
		c0.8,0,1.4-0.1,1.7-0.2c0.4-0.2,0.7-0.4,1-0.8c0.2-0.3,0.4-0.7,0.6-1.2c0.1-0.4,0.2-0.8,0.3-1.2h0.8v7.8h-0.7
		c0-0.4-0.2-0.9-0.3-1.4c-0.2-0.5-0.4-0.9-0.6-1.2c-0.3-0.4-0.7-0.7-1.2-0.8c-0.4-0.1-0.9-0.2-1.6-0.2h-2.5v6.5c0,0.7,0,1.2,0.1,1.5
		c0.1,0.4,0.3,0.7,0.6,0.9s0.7,0.3,1.2,0.4c0.5,0,1.1,0.1,1.9,0.1h1.3c0.5,0,1,0,1.4,0c0.4,0,0.8-0.1,1.2-0.2
		c0.5-0.1,0.7-0.3,0.9-0.5c0.5-0.5,0.9-1.2,1.4-2.2c0.5-0.9,0.8-1.6,0.9-2L22,29.2L22,29.2z"/>
	<g>
		<rect x="3.9" y="11" class="st0" width="18.9" height="1.4"/>
		<path class="st0" d="M8.1,10.7H3.8L0,4.4c0.8,0,3.5,0.2,5.8,2.1L8.1,10.7z"/>
		<path class="st0" d="M26.6,4.4l-3.8,6.3h-4.2l2.3-4.2l0,0C23.2,4.6,25.8,4.4,26.6,4.4z"/>
		<path class="st0" d="M22.6,2.5l-2.1,3.8l-2.3,4.4h-4.7l2-3.2l-0.7-1.1C17.8,2.7,21.6,2.5,22.6,2.5z"/>
		<path class="st0" d="M13.1,10.7H8.4L6,6.3L4,2.5c1,0,4.8,0.2,7.8,3.9l-0.7,1.1L13.1,10.7z"/>
		<polygon class="st0" points="15.2,3 14,5 13.4,3.9 12.7,4.9 11.5,3 13.4,0 		"/>
		<polygon class="st0" points="15.2,7.5 13.4,10.4 11.5,7.5 12.2,6.4 12.2,6.4 12.7,5.5 13.4,4.5 14,5.5 14.5,6.3 		"/>
	</g>
</g>
</svg>
