<?xml version="1.0" encoding="utf-8"?>
<!-- Generator: Adobe Illustrator 28.2.0, SVG Export Plug-In . SVG Version: 6.00 Build 0)  -->
<svg version="1.1" id="Layer_1" xmlns="http://www.w3.org/2000/svg" xmlns:xlink="http://www.w3.org/1999/xlink" x="0px" y="0px"
	 viewBox="0 0 104.6 15" style="enable-background:new 0 0 104.6 15;" xml:space="preserve">
<style type="text/css">
	.st0{fill:#FFFFFF;}
</style>
<g>
	<path class="st0" d="M11.3,10.7L11,14.6H0v-0.7c0.2,0,0.4,0,0.8-0.1c0.3,0,0.5-0.1,0.6-0.1c0.2-0.1,0.3-0.2,0.4-0.4
		s0.1-0.3,0.1-0.6V3.1c0-0.2,0-0.4-0.1-0.5C1.7,2.4,1.6,2.3,1.4,2.2C1.2,2.1,1,2,0.7,2C0.4,2,0.2,1.9,0,1.9V1.2h10.3v3.2H9.6
		c-0.1-0.5-0.4-1-0.8-1.5C8.4,2.4,8,2.1,7.6,2C7.4,2,7.2,2,6.9,1.9c-0.3,0-0.6,0-0.9,0H3.9v5.3h1.5c0.5,0,0.8,0,1.1-0.1
		c0.2,0,0.4-0.2,0.5-0.4S7.3,6.3,7.4,6s0.2-0.6,0.2-0.9h0.7v5.2H7.6c0-0.3-0.1-0.6-0.2-1C7.3,9,7.2,8.7,7.1,8.6
		C6.9,8.4,6.7,8.2,6.4,8.1C6.2,8,5.8,8,5.4,8H3.9v4c0,0.4,0,0.7,0.1,0.9s0.2,0.4,0.3,0.5c0.2,0.1,0.4,0.2,0.7,0.2
		c0.3,0,0.7,0.1,1.2,0.1c0.2,0,0.5,0,0.8,0s0.6,0,0.9,0c0.2,0,0.5-0.1,0.7-0.1c0.3-0.1,0.4-0.2,0.5-0.3c0.3-0.3,0.6-0.8,0.9-1.4
		c0.3-0.6,0.5-1.1,0.6-1.3L11.3,10.7L11.3,10.7z"/>
	<path class="st0" d="M21.6,5.9c-0.3,0.1-0.5,0.2-0.8,0.3c-0.3,0.2-0.5,0.4-0.7,0.8c-0.4,0.8-0.8,1.7-1.1,2.6
		c-0.4,0.9-0.8,1.9-1.2,2.9c-0.1,0.3-0.3,0.6-0.4,1s-0.3,0.8-0.4,1.1h-0.7c-0.6-1.5-1.1-2.8-1.6-4s-1-2.5-1.6-3.7
		c-0.1-0.3-0.3-0.5-0.6-0.7s-0.6-0.3-0.8-0.3V5.3H16V6c-0.2,0-0.4,0-0.7,0.1s-0.4,0.2-0.4,0.3v0.1c0,0.1,0.1,0.2,0.1,0.3
		c0.3,0.6,0.6,1.5,1.1,2.7c0.5,1.1,0.8,2.1,1.1,2.8c0.2-0.5,0.5-1.2,0.8-2s0.7-1.7,1.1-2.7c0.1-0.2,0.1-0.3,0.2-0.5
		c0.1-0.1,0.1-0.3,0.1-0.4c0-0.1-0.1-0.2-0.2-0.3S19,6.2,18.8,6.2c-0.1-0.1-0.3-0.1-0.4-0.1S18.1,6,18.1,6V5.4h3.5
		C21.6,5.4,21.6,5.9,21.6,5.9z"/>
	<path class="st0" d="M30.2,12.4c-0.4,0.7-0.9,1.3-1.6,1.8c-0.7,0.4-1.4,0.7-2.2,0.7c-0.7,0-1.4-0.1-2-0.4c-0.6-0.3-1-0.6-1.4-1.1
		s-0.6-1-0.8-1.6c-0.1-0.6-0.2-1.3-0.2-1.9s0.1-1.2,0.3-1.8c0.2-0.6,0.5-1.1,0.8-1.6c0.4-0.4,0.8-0.8,1.3-1.1S25.5,5,26.2,5
		c0.7,0,1.3,0.1,1.7,0.3c0.5,0.2,0.9,0.5,1.2,0.9c0.3,0.4,0.5,0.8,0.6,1.2c0.1,0.5,0.2,1,0.2,1.5v0.6h-6.1c0,0.6,0.1,1.2,0.2,1.7
		s0.3,0.9,0.5,1.3c0.2,0.4,0.6,0.7,1,0.9s0.9,0.3,1.4,0.3c0.6,0,1-0.1,1.4-0.4c0.4-0.3,0.8-0.7,1.2-1.4L30.2,12.4z M28.1,8.9
		c0-0.3,0-0.7-0.1-1.1c-0.1-0.4-0.2-0.7-0.3-1c-0.1-0.3-0.3-0.5-0.6-0.7c-0.3-0.2-0.6-0.3-1-0.3c-0.7,0-1.2,0.3-1.6,0.8
		s-0.6,1.3-0.7,2.3H28.1z"/>
	<path class="st0" d="M41.5,14.6H37V14c0.1,0,0.3,0,0.5,0s0.3,0,0.4-0.1c0.2-0.1,0.3-0.2,0.4-0.3c0.1-0.1,0.1-0.3,0.1-0.5V8.3
		c0-0.7-0.2-1.2-0.5-1.5c-0.3-0.4-0.7-0.5-1.1-0.5c-0.3,0-0.6,0.1-0.9,0.2c-0.3,0.1-0.5,0.2-0.7,0.4C35,7,34.8,7.2,34.7,7.4
		s-0.2,0.3-0.3,0.4v5.1c0,0.2,0,0.4,0.1,0.5s0.2,0.2,0.4,0.3c0.1,0.1,0.3,0.1,0.4,0.1c0.2,0,0.3,0.1,0.5,0.1v0.6h-4.5v-0.6
		c0.1,0,0.3,0,0.4,0c0.2,0,0.3,0,0.4-0.1c0.2-0.1,0.3-0.2,0.4-0.3c0.1-0.1,0.1-0.3,0.1-0.5V7.3c0-0.2,0-0.4-0.1-0.6
		c-0.1-0.2-0.2-0.3-0.4-0.4c-0.1-0.1-0.3-0.1-0.4-0.2c-0.2,0-0.3-0.1-0.5-0.1V5.4l3.1-0.2l0.1,0.1v1.3l0,0c0.2-0.2,0.3-0.3,0.6-0.5
		c0.2-0.2,0.4-0.4,0.6-0.5c0.2-0.2,0.5-0.3,0.8-0.4C36.7,5.1,37.1,5,37.5,5c0.9,0,1.5,0.3,2,0.8c0.4,0.6,0.6,1.3,0.6,2.2v4.9
		c0,0.2,0,0.4,0.1,0.5s0.2,0.2,0.4,0.3s0.3,0.1,0.4,0.1c0.1,0,0.3,0,0.5,0.1C41.5,13.9,41.5,14.6,41.5,14.6z"/>
	<path class="st0" d="M48.4,14.2c-0.4,0.2-0.8,0.3-1.2,0.4c-0.4,0.1-0.8,0.2-1.3,0.2c-0.8,0-1.3-0.2-1.6-0.6
		c-0.3-0.4-0.5-0.9-0.5-1.7V6.2h-1.7V5.3h1.7V2.4h1.7v2.9h2.7v0.9h-2.6v5.2c0,0.4,0,0.7,0,1s0.1,0.5,0.2,0.7
		c0.1,0.2,0.3,0.3,0.5,0.4c0.2,0.1,0.5,0.1,0.8,0.1c0.2,0,0.4,0,0.7,0s0.5-0.1,0.6-0.1C48.4,13.5,48.4,14.2,48.4,14.2z"/>
	<path class="st0" d="M60,14.9c-0.8,0-1.6-0.2-2.3-0.5s-1.4-0.8-1.9-1.4c-0.6-0.6-1-1.3-1.3-2.2C54.2,10,54,9,54,7.9s0.2-2,0.5-2.9
		s0.8-1.6,1.4-2.2c0.6-0.6,1.2-1.1,2-1.4c0.8-0.3,1.6-0.5,2.5-0.5c0.7,0,1.3,0.1,1.8,0.2c0.5,0.2,1,0.4,1.5,0.7l0.4-0.6h0.8L65,6
		h-0.8c-0.1-0.5-0.3-1-0.5-1.5s-0.4-1-0.7-1.4s-0.7-0.8-1.1-1c-0.4-0.2-0.9-0.4-1.4-0.4c-0.6,0-1.2,0.1-1.7,0.4
		c-0.5,0.3-1,0.7-1.4,1.2s-0.6,1.2-0.9,1.9c-0.2,0.8-0.3,1.7-0.3,2.6c0,0.9,0.1,1.6,0.3,2.3s0.5,1.3,0.9,1.9
		c0.4,0.5,0.9,0.9,1.4,1.2s1.2,0.5,1.8,0.5c0.5,0,1-0.1,1.4-0.2c0.4-0.2,0.8-0.4,1.1-0.6c0.3-0.3,0.6-0.6,0.8-0.9
		c0.2-0.4,0.4-0.7,0.6-1.1l0.7,0.3c-0.5,1.3-1.3,2.3-2.1,2.8C62.3,14.6,61.2,14.9,60,14.9z"/>
	<path class="st0" d="M75,14.4c-0.3,0.1-0.6,0.2-0.8,0.3c-0.2,0.1-0.5,0.1-0.8,0.1c-0.5,0-0.9-0.1-1.2-0.3c-0.3-0.2-0.5-0.6-0.6-1
		h-0.1c-0.4,0.5-0.8,0.8-1.3,1s-1,0.4-1.7,0.4s-1.3-0.2-1.7-0.6c-0.4-0.4-0.7-1-0.7-1.7c0-0.4,0.1-0.7,0.2-1s0.3-0.5,0.5-0.8
		c0.2-0.2,0.4-0.4,0.6-0.5c0.3-0.1,0.5-0.3,0.7-0.4c0.3-0.1,0.9-0.3,1.7-0.6c0.9-0.3,1.4-0.5,1.7-0.7V7.7c0-0.1,0-0.2-0.1-0.5
		c0-0.2-0.1-0.5-0.2-0.7s-0.3-0.4-0.5-0.6c-0.2-0.2-0.6-0.3-1-0.3c-0.3,0-0.6,0-0.8,0.1c-0.2,0.1-0.4,0.2-0.5,0.3
		c0,0.1,0,0.3,0.1,0.6c0.1,0.2,0.1,0.5,0.1,0.7s-0.1,0.4-0.3,0.6c-0.2,0.2-0.5,0.3-0.8,0.3S67,8.1,66.8,7.9
		c-0.1-0.2-0.2-0.5-0.2-0.7c0-0.3,0.1-0.6,0.3-0.8c0.2-0.3,0.5-0.5,0.8-0.7s0.6-0.3,1-0.4c0.4-0.1,0.8-0.2,1.2-0.2
		c0.5,0,1,0,1.4,0.1s0.7,0.2,1.1,0.5c0.3,0.2,0.6,0.5,0.7,0.9c0.2,0.4,0.2,0.9,0.2,1.5c0,0.9,0,1.7,0,2.4s0,1.4,0,2.3
		c0,0.2,0,0.4,0.1,0.6c0.1,0.1,0.2,0.3,0.4,0.4c0.1,0.1,0.2,0.1,0.4,0.1s0.4,0,0.6,0v0.5H75z M71.8,9.5c-0.5,0.2-1,0.3-1.4,0.5
		s-0.8,0.3-1.1,0.6c-0.3,0.2-0.6,0.5-0.7,0.8c-0.2,0.3-0.3,0.6-0.3,1c0,0.5,0.1,0.9,0.4,1.1c0.3,0.2,0.6,0.4,1,0.4s0.8-0.1,1.2-0.3
		c0.3-0.2,0.6-0.5,0.9-0.8V9.5z"/>
	<path class="st0" d="M82.1,10c0.3,0.2,0.5,0.5,0.6,0.8s0.2,0.7,0.2,1.1c0,0.9-0.3,1.6-1,2.1c-0.6,0.5-1.5,0.8-2.5,0.8
		c-0.5,0-1-0.1-1.5-0.3s-0.8-0.4-1-0.5l-0.2,0.6H76v-3.2h0.6c0.1,0.2,0.2,0.5,0.3,0.9c0.2,0.3,0.4,0.6,0.6,0.9
		c0.2,0.3,0.5,0.5,0.9,0.7s0.7,0.3,1.2,0.3c0.6,0,1.1-0.1,1.4-0.4c0.3-0.3,0.5-0.7,0.5-1.2c0-0.3-0.1-0.5-0.2-0.7s-0.3-0.4-0.5-0.5
		S80.3,11.1,80,11c-0.3-0.1-0.6-0.2-1-0.3c-0.3-0.1-0.6-0.2-1-0.4s-0.7-0.3-0.9-0.5c-0.3-0.2-0.5-0.5-0.7-0.8s-0.3-0.7-0.3-1.1
		c0-0.8,0.3-1.4,0.8-1.9c0.6-0.5,1.3-0.8,2.3-0.8c0.4,0,0.7,0,1.1,0.1s0.7,0.2,0.9,0.3l0.2-0.5h0.7l0.1,3h-0.6
		c-0.1-0.7-0.4-1.2-0.8-1.6c-0.4-0.4-1-0.6-1.6-0.6c-0.5,0-0.9,0.1-1.2,0.4c-0.3,0.3-0.4,0.6-0.4,0.9c0,0.3,0,0.5,0.1,0.7
		s0.2,0.3,0.4,0.5c0.2,0.1,0.4,0.2,0.7,0.4c0.3,0.1,0.6,0.2,1.1,0.4c0.4,0.1,0.8,0.3,1.2,0.5C81.5,9.6,81.8,9.8,82.1,10z"/>
	<path class="st0" d="M90,14.2c-0.4,0.2-0.8,0.3-1.2,0.4c-0.4,0.1-0.8,0.2-1.3,0.2c-0.8,0-1.3-0.2-1.6-0.6c-0.3-0.4-0.5-0.9-0.5-1.7
		V6.2h-1.7V5.3h1.7V2.4h1.7v2.9h2.7v0.9h-2.6v5.2c0,0.4,0,0.7,0,1s0.1,0.5,0.2,0.7s0.3,0.3,0.5,0.4c0.2,0.1,0.5,0.1,0.8,0.1
		c0.2,0,0.4,0,0.7,0c0.3,0,0.5-0.1,0.6-0.1C90,13.5,90,14.2,90,14.2z"/>
	<path class="st0" d="M95.2,14.6h-4.5V14c0.1,0,0.3,0,0.5,0s0.3,0,0.4-0.1c0.2-0.1,0.3-0.2,0.4-0.3s0.1-0.3,0.1-0.5V2.3
		c0-0.2,0-0.4-0.1-0.6c-0.1-0.2-0.2-0.4-0.4-0.5C91.5,1.1,91.3,1.1,91,1c-0.3-0.1-0.6-0.1-0.8-0.1V0.3l3.5-0.2l0.1,0.1v12.7
		c0,0.2,0,0.4,0.1,0.5s0.2,0.2,0.4,0.3c0.1,0.1,0.3,0.1,0.4,0.1s0.3,0.1,0.5,0.1V14.6z"/>
	<path class="st0" d="M104.6,12.4c-0.4,0.7-0.9,1.3-1.6,1.8c-0.7,0.4-1.4,0.7-2.2,0.7c-0.7,0-1.4-0.1-2-0.4s-1-0.6-1.4-1.1
		s-0.6-1-0.8-1.6c-0.2-0.6-0.3-1.2-0.3-1.9c0-0.6,0.1-1.2,0.3-1.8c0.2-0.6,0.5-1.1,0.8-1.6c0.4-0.4,0.8-0.8,1.3-1.1S99.8,5,100.5,5
		c0.7,0,1.3,0.1,1.7,0.3c0.5,0.2,0.9,0.5,1.2,0.9c0.3,0.4,0.5,0.8,0.6,1.2c0.1,0.5,0.2,1,0.2,1.5v0.6h-6.1c0,0.6,0.1,1.2,0.2,1.7
		s0.3,0.9,0.5,1.3c0.2,0.4,0.6,0.7,1,0.9s0.9,0.3,1.4,0.3c0.6,0,1-0.1,1.4-0.4c0.4-0.3,0.8-0.7,1.2-1.4L104.6,12.4z M102.6,8.9
		c0-0.3,0-0.7-0.1-1.1c-0.1-0.4-0.2-0.7-0.3-1c-0.1-0.3-0.3-0.5-0.6-0.7c-0.3-0.2-0.6-0.3-1-0.3c-0.7,0-1.2,0.3-1.6,0.8
		s-0.7,1.3-0.7,2.3H102.6z"/>
</g>
</svg>
