<?xml version="1.0" encoding="utf-8"?>
<!-- Generator: Adobe Illustrator 28.2.0, SVG Export Plug-In . SVG Version: 6.00 Build 0)  -->
<svg version="1.1" id="Layer_1" xmlns="http://www.w3.org/2000/svg" xmlns:xlink="http://www.w3.org/1999/xlink" x="0px" y="0px"
	 viewBox="0 0 612 792" style="enable-background:new 0 0 612 792;" xml:space="preserve">
<style type="text/css">
	.st0{fill:#383838;}
	.st1{fill:#FFFFFF;}
</style>
<g>
	<path class="st0" d="M338.77,440.03l-1.42,21.79h-64.16v-2.52c1.06-0.11,2.34-0.26,3.83-0.44c1.93-0.26,3.21-0.51,3.83-0.8
		c1.31-0.62,2.26-1.46,2.81-2.52c0.51-0.99,0.77-2.23,0.77-3.72v-56.75c0-1.35-0.22-2.52-0.66-3.54c-0.47-1.13-1.46-2.04-2.92-2.7
		c-1.06-0.51-2.45-0.95-4.2-1.31c-1.39-0.33-2.52-0.51-3.47-0.62v-2.55h59.67v17.55h-2.92c-0.8-2.74-2.41-5.66-4.78-8.72
		c-2.59-3.36-5.07-5.15-7.52-5.47c-1.17-0.15-2.55-0.26-4.16-0.33c-1.61-0.07-3.47-0.11-5.51-0.11h-13.14v32.85h9.63
		c2.99,0,5.11-0.29,6.53-0.88c1.42-0.55,2.7-1.53,3.8-2.92c0.88-1.13,1.61-2.66,2.19-4.53c0.51-1.61,0.88-3.14,1.1-4.6h2.81v29.49
		h-2.77c-0.22-1.61-0.58-3.36-1.17-5.15c-0.69-2.08-1.39-3.58-2.15-4.53c-1.24-1.57-2.7-2.59-4.31-3.1
		c-1.53-0.44-3.54-0.69-6.02-0.69h-9.63v24.42c0,2.41,0.18,4.34,0.51,5.77c0.4,1.53,1.13,2.74,2.23,3.54
		c1.06,0.77,2.52,1.28,4.31,1.5c1.68,0.22,4.12,0.29,7.23,0.29h4.82c2.04,0,3.76-0.07,5.15-0.22c1.46-0.15,2.96-0.44,4.49-0.8
		c1.64-0.44,2.81-1.02,3.54-1.79c1.75-1.82,3.58-4.6,5.47-8.28c1.75-3.36,2.88-5.84,3.5-7.59H338.77z"/>
	<g>
		<rect x="270.6" y="371.53" class="st0" width="70.88" height="5.33"/>
		<path class="st0" d="M286.29,370.43h-15.95L256,346.75c3.03,0.04,12.92,0.73,21.79,7.81L286.29,370.43z"/>
		<path class="st0" d="M356,346.75l-14.34,23.69h-15.91l8.47-15.88l0.04-0.04C343.08,347.48,352.97,346.78,356,346.75z"/>
		<path class="st0" d="M341.04,339.49l-7.66,14.38l-8.87,16.57h-17.74l7.63-12.23l-2.63-4.2
			C322.93,340.43,337.42,339.49,341.04,339.49z"/>
		<path class="st0" d="M305.45,370.43h-17.92l-8.87-16.53l-7.7-14.42c3.65,0,18.21,0.95,29.38,14.71l-2.52,4.01L305.45,370.43z"/>
		<polygon class="st0" points="313.12,341.42 308.52,348.79 306.11,344.96 303.74,348.76 299.1,341.42 306.11,330.18 		"/>
		<polygon class="st0" points="313.12,358.21 306.11,369.41 299.1,358.21 301.69,354.12 301.66,354.08 303.74,350.8 306.11,347 
			308.52,350.84 310.45,353.94 		"/>
	</g>
</g>
</svg>
