<svg width="179" height="28" viewBox="0 0 179 28" fill="none" xmlns="http://www.w3.org/2000/svg">
<path d="M15.8566 5.81645C15.8566 4.89552 15.3096 4.4316 14.2086 4.4316C12.1106 4.4316 10.1995 5.40792 8.48224 7.35364C7.47129 8.49615 6.75809 9.73559 6.35648 11.065C6.15568 11.7159 6.05874 12.2837 6.05874 12.7823C6.05874 13.2808 6.11414 13.6686 6.23185 13.9594C6.34956 14.2502 6.49498 14.4926 6.66808 14.6795C7.04199 15.0742 7.47822 15.2265 7.96984 15.1435C8.50993 14.9219 8.98771 14.8111 9.39624 14.8111C9.81169 14.8111 10.1371 14.8665 10.3864 14.9704C10.6357 15.0742 10.8365 15.2058 10.9888 15.3581C11.3073 15.6628 11.4666 15.9605 11.4666 16.2513C11.4666 16.8122 11.2796 17.103 10.9057 17.1238C10.331 17.1792 9.73553 17.3384 9.10542 17.6016C8.47531 17.8647 7.84521 18.2109 7.20817 18.6333C6.57114 19.0557 6.00335 19.5335 5.51173 20.0597C4.37615 21.2714 3.81527 22.4832 3.81527 23.7088C3.81527 24.2904 3.95376 24.7336 4.23073 25.0313C4.69466 25.5506 5.24168 25.8068 5.87871 25.8068C6.51575 25.8068 7.13893 25.6822 7.74827 25.4329C8.3576 25.1837 8.91155 24.8859 9.40317 24.5328C10.151 23.9927 10.878 23.3072 11.5843 22.4693C11.9375 22.0539 12.2421 21.8392 12.5052 21.8392C12.7684 21.8392 12.9692 21.9985 13.1077 22.3101C13.2461 22.6217 13.3154 22.954 13.3154 23.3072C13.3154 24.0342 13.1769 24.5674 12.8999 24.9136C12.623 25.2598 12.2837 25.606 11.8682 25.9522C11.4528 26.2985 10.9611 26.6239 10.3933 26.9147C9.0154 27.621 7.54746 27.9672 5.96872 27.9672C3.31673 27.9672 1.50256 27.1017 0.526241 25.3637C0.173103 24.7128 0 24.0481 0 23.3695C0 22.6909 0.103866 22.0539 0.30467 21.4722C0.505474 20.8906 0.768589 20.3505 1.08711 19.845C1.40562 19.3465 1.76569 18.8964 2.16037 18.4948C2.55505 18.0932 2.94974 17.747 3.33058 17.4492C4.09225 16.8537 4.71543 16.5214 5.21398 16.4452C3.96761 15.9536 3.1367 14.9911 2.70739 13.5578C2.57583 13.0939 2.50658 12.533 2.50658 11.8752C2.50658 11.2174 2.63122 10.4903 2.88742 9.68712C3.1367 8.89083 3.49676 8.12916 3.96069 7.39519C4.42461 6.66121 4.97164 5.97571 5.60867 5.33868C6.2457 4.70164 6.95197 4.1477 7.72056 3.66992C9.38239 2.65898 11.1273 2.1535 12.9692 2.1535C14.8941 2.1535 16.3274 2.63128 17.2761 3.58683C18.0377 4.35543 18.4116 5.33868 18.4116 6.53658C18.4116 7.90067 17.8369 9.27858 16.6944 10.6773C16.002 11.5151 15.3788 12.0829 14.8249 12.3737C14.2709 12.6715 13.8347 12.8307 13.5231 12.8584C13.2115 12.8861 12.9207 12.8446 12.6507 12.7407C12.3806 12.6369 12.1452 12.4984 11.9513 12.3183C11.5012 11.9098 11.2727 11.5428 11.2727 11.2105C11.2727 10.8019 11.4181 10.4903 11.702 10.2688L13.1838 9.21628C14.9634 7.92144 15.8566 6.78585 15.8566 5.81645Z" fill="#EC4C67"/>
<path d="M17.1237 26.2084C16.9575 25.8484 16.8745 25.4191 16.8745 24.9205C16.8745 24.422 16.9506 23.8819 17.103 23.2795C17.2553 22.684 17.4561 22.0677 17.6984 21.4376C17.9408 20.8075 18.2108 20.1704 18.5086 19.5265L19.3533 17.6154C20.4405 15.095 20.8421 13.6132 20.5582 13.1631C20.4266 12.9553 20.1704 12.7476 19.7965 12.533C19.6719 12.4568 19.6165 12.3183 19.6165 12.1314C19.6165 11.9375 19.6996 11.7575 19.8588 11.5774C20.0181 11.4043 20.2327 11.2451 20.4959 11.1135C21.0221 10.8573 21.5553 10.7327 22.0954 10.7327C22.6355 10.7327 23.044 10.7881 23.3279 10.9058C23.6049 11.0235 23.8403 11.1689 24.0272 11.342C24.3804 11.7021 24.5535 12.1452 24.5535 12.6645C24.5535 13.1838 24.4565 13.7655 24.2557 14.4164C24.0549 15.0673 23.8126 15.7458 23.5148 16.459C23.2171 17.1722 22.8917 17.9062 22.5385 18.654L21.5622 20.8144C20.8698 22.407 20.5235 23.4664 20.5235 23.9857C20.5235 24.9967 20.8836 25.5021 21.5968 25.5021C23.4317 25.5021 25.1559 24.415 26.7623 22.2339C27.6971 20.9667 28.3688 19.5957 28.7773 18.107C28.9642 17.4007 29.0543 16.7637 29.0543 16.1821C29.0543 15.6004 29.0335 15.1227 28.9989 14.7349C28.9573 14.3471 28.895 14.0078 28.8119 13.7101C28.6665 13.1839 28.4241 12.7268 28.0849 12.3391C27.8564 12.0552 27.9602 11.7159 28.3964 11.3351C28.8811 10.9265 29.5667 10.7257 30.4599 10.7257C31.0069 10.7257 31.4916 10.9819 31.914 11.5013C32.4402 12.1175 32.7033 12.9969 32.7033 14.1463C32.7033 15.2958 32.5302 16.4244 32.191 17.5254C31.8517 18.6333 31.3808 19.6927 30.7923 20.7106C30.1968 21.7284 29.4974 22.677 28.6873 23.5564C27.8771 24.4358 27.0047 25.2044 26.0699 25.8484C24.0688 27.254 22.0677 27.9603 20.0665 27.9603C18.6194 27.9741 17.643 27.3856 17.1237 26.2084Z" fill="#EC4C67"/>
<path d="M34.4829 22.0331C34.5244 21.0775 34.6837 20.1635 34.9606 19.2842C35.2376 18.4117 35.6046 17.56 36.0685 16.7429C36.5325 15.9259 37.0726 15.1503 37.6957 14.4164C38.3189 13.6824 38.9906 13.0454 39.7176 12.4914C41.2894 11.3143 42.882 10.7257 44.4885 10.7257C46.3719 10.7257 47.6251 11.5013 48.2483 13.0523C48.4699 13.5786 48.5738 14.2017 48.5599 14.9219C48.5461 15.642 48.4145 16.3067 48.1514 16.916C47.8883 17.5254 47.5213 18.0793 47.0574 18.5848C46.5865 19.0834 46.0326 19.5334 45.3886 19.9281C44.7447 20.3228 44.0453 20.6621 43.2836 20.9321C41.7187 21.4791 40.05 21.77 38.2705 21.7907C38.2289 21.9431 38.2012 22.1785 38.1874 22.4832C38.1735 22.7878 38.2081 23.1341 38.2843 23.5149C38.3605 23.8957 38.492 24.235 38.679 24.5258C39.0737 25.1836 39.6484 25.516 40.3962 25.516C41.6703 25.516 42.9166 25.1421 44.1284 24.3943C44.5577 24.1381 44.9039 23.8819 45.174 23.6118C45.444 23.3418 45.6794 23.2102 45.8733 23.2102C46.0672 23.2102 46.2472 23.3279 46.3926 23.5634C46.538 23.7988 46.6142 24.0688 46.6142 24.3666C46.6142 24.9482 46.448 25.4537 46.1157 25.883C44.7308 27.2679 42.6674 27.9603 39.9254 27.9603C38.312 27.9603 37.0102 27.4756 36.0339 26.5062C34.9329 25.426 34.4136 23.9303 34.4829 22.0331ZM44.1145 12.9277C42.9582 12.9277 41.8503 13.717 40.784 15.3027C39.8838 16.6668 39.1568 18.2871 38.6028 20.1566C40.4377 19.9697 42.0373 19.2426 43.3875 17.9755C44.6269 16.7845 45.2501 15.6489 45.2501 14.5618C45.2501 13.4747 44.8762 12.9277 44.1145 12.9277Z" fill="#EC4C67"/>
<path d="M62.1523 13.8555C61.813 13.8555 61.3283 14.181 60.6982 14.8388C60.0681 15.4966 59.528 16.092 59.0641 16.6252L57.6584 18.3078L54.9511 21.7561C54.314 22.9679 53.8155 23.9719 53.4485 24.7751L52.5552 26.6862C52.3267 27.157 52.1259 27.4894 51.9528 27.6833C51.7797 27.8772 51.5512 27.9741 51.2604 27.9741C50.9696 27.9741 50.6857 27.9187 50.4226 27.8149C50.1525 27.711 49.9171 27.5794 49.7232 27.4133C49.3078 27.0601 49.0931 26.6793 49.0931 26.2569C49.0931 26.0907 49.2108 25.7653 49.4532 25.2806L50.0833 23.9442C50.2841 23.5495 50.5126 23.044 50.7757 22.4278L51.6966 20.1705C52.9915 16.923 53.6424 14.8318 53.6424 13.8832C53.6424 13.3777 53.4762 13.0038 53.1507 12.7615L52.8184 12.533C52.7076 12.4568 52.6522 12.3183 52.6522 12.1314C52.6522 11.9375 52.7284 11.7575 52.8738 11.5774C53.0192 11.4043 53.22 11.2451 53.4623 11.1135C53.954 10.8573 54.4525 10.7327 54.958 10.7327C55.4565 10.7327 55.8443 10.7881 56.1213 10.8988C56.3982 11.0096 56.6267 11.1551 56.8137 11.342C57.2222 11.7298 57.423 12.1314 57.423 12.5468C57.423 12.9623 57.3676 13.3847 57.2638 13.8071C57.1599 14.2294 57.0283 14.6587 56.8691 15.095C56.7098 15.5312 56.5436 15.9536 56.3636 16.376C56.1836 16.7914 56.0243 17.1584 55.8858 17.4631L55.5535 18.1693C55.4634 18.3424 55.4427 18.3978 55.4842 18.3355C56.7029 16.6391 57.5061 15.552 57.8939 15.0673L59.0502 13.6824C59.895 12.6922 60.5597 12.0413 61.0444 11.7159C62.0207 11.0581 62.7963 10.7257 63.3502 10.7257C63.9111 10.7257 64.3819 10.795 64.7697 10.9404C65.1574 11.0858 65.4898 11.2866 65.7737 11.5497C66.3761 12.1106 66.6808 12.8238 66.6808 13.6963C66.6808 14.5618 66.48 15.4758 66.0853 16.4175C65.6906 17.3661 65.3444 18.1278 65.0536 18.7164C64.7627 19.3049 64.4858 19.9004 64.2226 20.5097C63.3987 22.3447 62.9832 23.6811 62.9832 24.5189C62.9832 24.8928 63.2809 25.0798 63.8764 25.0798C64.3404 25.0798 64.7558 24.9828 65.1367 24.782C65.5175 24.5812 65.7598 24.4843 65.8706 24.4843C66.0991 24.4843 66.2168 24.602 66.2168 24.8305C66.2168 25.8068 65.7183 26.6308 64.7143 27.2886C64.0426 27.7387 63.4264 27.9672 62.8655 27.9672C62.3046 27.9672 61.8407 27.9049 61.4737 27.7872C61.1067 27.6695 60.7813 27.4756 60.4905 27.2124C59.8396 26.6308 59.5141 25.8137 59.5141 24.7682C59.5141 23.4941 59.9157 21.8946 60.719 19.9835C61.3006 18.6748 61.7161 17.7746 61.9584 17.2969L62.5193 16.1267C62.8586 15.4204 63.0317 14.8665 63.0317 14.4579C63.0594 14.0563 62.7547 13.8555 62.1523 13.8555Z" fill="#EC4C67"/>
<path d="M78.8119 23.4871C79.1304 23.4871 79.2896 23.7018 79.2896 24.1311C79.2896 24.4912 79.1789 24.8443 78.9573 25.1836C78.6595 25.8206 78.0641 26.4299 77.1777 26.9977C76.1668 27.6486 75.1489 27.9741 74.1241 27.9741C72.3515 27.9741 71.2298 27.1847 70.7589 25.599C70.1981 23.7156 71.0359 19.7342 73.2863 13.6339C72.0192 13.5231 71.3337 13.3015 71.2229 12.9761C71.1882 12.8791 71.1744 12.7683 71.1744 12.6576C71.1744 12.5468 71.2298 12.4083 71.3337 12.2559C71.4375 12.1036 71.576 11.9513 71.7353 11.8128C72.123 11.4943 72.5108 11.335 72.9055 11.335H74.2072C75.3913 8.55145 76.243 6.96578 76.7484 6.58494C76.9908 6.41184 77.2608 6.32184 77.5586 6.32184C77.8563 6.32184 78.1056 6.36337 78.2995 6.43954C78.5003 6.51571 78.6734 6.6265 78.8257 6.77191C79.1789 7.10428 79.352 7.47127 79.352 7.8798C79.352 8.10138 79.2827 8.35064 79.1512 8.64146L77.9325 11.3004H78.3272C79.0058 11.3004 79.5597 11.2935 79.9751 11.2865L80.9169 11.2727C81.1246 11.2588 81.3877 11.2588 81.6993 11.2588C82.0109 11.2588 82.1701 11.3765 82.1701 11.605C82.1701 13.0591 80.4529 13.7793 77.0254 13.7793H76.8938L75.7721 16.6806C74.505 20.115 73.8749 22.5177 73.8749 23.8887C73.8749 24.2765 73.9649 24.5742 74.138 24.7889C74.3111 25.0035 74.6434 25.1074 75.1281 25.1074C75.6128 25.1074 76.0491 25.0243 76.4507 24.8581C76.8454 24.6919 77.1916 24.5119 77.4893 24.3042C77.7871 24.1034 78.0433 23.9164 78.2579 23.7502C78.4726 23.5702 78.6595 23.4871 78.8119 23.4871Z" fill="#EC4C67"/>
<path d="M92.1413 20.8836L92.1552 20.4058C92.2798 17.1168 93.1038 14.0078 94.6479 11.0857C96.0674 8.41295 97.8538 6.25259 100.007 4.60461C102.14 2.9774 104.217 2.16034 106.246 2.16034C107.783 2.16034 109.002 2.69351 109.895 3.75985C110.657 4.68077 111.031 5.81636 111.031 7.15967C111.031 8.7661 110.442 10.3518 109.265 11.9097C108.586 12.8099 107.859 13.4608 107.091 13.8554C106.731 14.0562 106.391 14.1532 106.073 14.1532C105.761 14.1532 105.471 14.0839 105.207 13.9524C104.944 13.8208 104.709 13.6546 104.515 13.4608C104.106 13.0315 103.906 12.6437 103.906 12.3044C103.906 11.9651 103.996 11.7297 104.169 11.5981C105.976 10.3033 107.202 8.9669 107.846 7.58897C108.102 7.06273 108.226 6.54341 108.226 6.03794C108.226 4.9716 107.721 4.43843 106.71 4.43843C105.124 4.43843 103.49 5.30396 101.808 7.02811C100.236 8.62069 98.9133 10.6218 97.8469 13.0314C96.739 15.5034 96.1505 17.7746 96.0812 19.845L96.0674 20.475C96.0674 22.947 96.5867 24.5742 97.6322 25.3428C98.0062 25.6198 98.4562 25.7583 98.9756 25.7583C99.4949 25.7583 99.9865 25.689 100.45 25.5575C100.914 25.4259 101.371 25.2459 101.835 25.0105C102.583 24.6227 103.539 23.958 104.709 23.0163C105.062 22.7393 105.353 22.7808 105.581 23.134C105.782 23.4179 105.879 23.7502 105.879 24.1242C105.879 24.7543 105.796 25.1766 105.623 25.4051C105.45 25.6336 105.159 25.8968 104.75 26.2084C104.335 26.52 103.836 26.8038 103.241 27.067C101.856 27.6832 100.499 27.9879 99.1694 27.9879C97.84 27.9879 96.7667 27.8286 95.9497 27.5032C95.1326 27.1778 94.4471 26.7138 93.8862 26.1114C92.723 24.8166 92.1413 23.0786 92.1413 20.8836Z" fill="#EC4C67"/>
<path d="M122.484 23.4248C122.484 24.4357 122.844 24.9412 123.557 24.9412C124.055 24.9412 124.464 24.865 124.783 24.7127C125.108 24.5604 125.323 24.4842 125.433 24.4842C125.662 24.4842 125.78 24.6019 125.78 24.8443C125.78 25.7929 125.281 26.603 124.291 27.2885C123.245 28.0017 122.179 28.1818 121.092 27.8148C120.379 27.5586 119.846 27.0185 119.506 26.1807C119.34 25.7513 119.257 25.3636 119.257 25.0104C119.257 24.4357 119.312 23.8333 119.423 23.1963C118.398 25.2874 117.131 26.7277 115.615 27.517C115.012 27.8217 114.368 27.981 113.683 27.981C113.004 27.981 112.409 27.8425 111.91 27.5586C111.412 27.2747 110.982 26.8869 110.629 26.3953C109.916 25.3636 109.591 24.0618 109.653 22.5039C109.715 20.5443 110.297 18.6263 111.384 16.7429C112.388 14.9841 113.648 13.5508 115.179 12.436C116.709 11.3004 118.135 10.7395 119.472 10.7395C120.808 10.7395 121.874 11.3489 122.691 12.5745C123.453 11.3558 124.118 10.7395 124.706 10.7395C125.336 10.7395 125.807 10.8572 126.126 11.0857C126.728 11.5289 126.943 11.9097 126.77 12.2421C124.007 17.8923 122.588 21.4167 122.511 22.8016C122.491 22.9955 122.484 23.2032 122.484 23.4248ZM113.323 23.4871C113.323 24.8096 113.745 25.4675 114.59 25.4675C115.241 25.4675 116.037 24.9204 116.986 23.8195C118.371 22.1992 119.596 20.025 120.663 17.283C121.002 16.4243 121.293 15.5657 121.521 14.7071C121.48 13.9593 121.161 13.4123 120.58 13.0591C120.379 12.9414 120.088 12.8791 119.7 12.8791C119.312 12.8791 118.855 13.0245 118.329 13.3084C117.81 13.5923 117.297 13.987 116.813 14.4786C116.321 14.9703 115.864 15.5588 115.442 16.2374C115.019 16.916 114.645 17.6499 114.327 18.4393C113.662 20.1358 113.323 21.8183 113.323 23.4871Z" fill="#EC4C67"/>
<path d="M127.247 24.9066C127.247 24.5673 127.324 24.2488 127.469 23.958C127.614 23.6672 127.801 23.4179 128.023 23.224C128.487 22.7947 128.972 22.58 129.477 22.58C129.92 22.58 130.135 22.8086 130.135 23.2586C130.135 24.4011 130.516 25.1974 131.27 25.6544C131.547 25.8206 131.831 25.9037 132.129 25.9037C132.427 25.9037 132.676 25.8691 132.891 25.8068C133.098 25.7375 133.292 25.6336 133.465 25.4952C133.86 25.1766 134.061 24.7958 134.061 24.3596C134.061 23.9234 133.964 23.5148 133.763 23.1478C133.562 22.7809 133.32 22.3931 133.022 21.9846L132.081 20.662C130.758 18.9033 130.1 17.283 130.1 15.7943C130.1 14.5617 130.62 13.4469 131.665 12.4429C132.856 11.3073 134.379 10.7465 136.235 10.7465C137.862 10.7465 139.136 11.1481 140.043 11.9513C140.791 12.6022 141.165 13.3431 141.165 14.1809C141.165 15.0464 140.833 15.7458 140.175 16.2582C139.58 16.7221 138.984 16.8883 138.396 16.7706C138.132 16.7152 137.932 16.5836 137.786 16.369C137.641 16.1543 137.613 15.912 137.703 15.635C137.793 15.358 137.835 15.0741 137.835 14.7764C137.835 14.4787 137.779 14.2017 137.668 13.9524C137.558 13.6962 137.412 13.4816 137.225 13.3085C136.838 12.9484 136.436 12.7614 136.014 12.7614C135.591 12.7614 135.238 12.8099 134.968 12.8999C134.691 12.9899 134.449 13.1284 134.241 13.3015C133.812 13.6962 133.597 14.1809 133.597 14.7625C133.597 15.3442 133.694 15.8358 133.895 16.2582C134.096 16.6736 134.338 17.096 134.629 17.5115C134.92 17.9269 135.238 18.3493 135.577 18.7786C135.917 19.2079 136.235 19.658 136.519 20.1288C137.211 21.2367 137.558 22.2131 137.558 23.0578C137.558 23.9026 137.385 24.602 137.031 25.1697C136.678 25.7375 136.221 26.2222 135.66 26.6308C134.463 27.524 133.119 27.9671 131.637 27.9671C130.218 27.9671 129.096 27.6279 128.272 26.9424C127.594 26.3676 127.247 25.6891 127.247 24.9066Z" fill="#EC4C67"/>
<path d="M151.946 23.4871C152.265 23.4871 152.424 23.7018 152.424 24.1311C152.424 24.4912 152.313 24.8443 152.092 25.1836C151.794 25.8206 151.198 26.4299 150.312 26.9977C149.301 27.6486 148.283 27.9741 147.259 27.9741C145.486 27.9741 144.364 27.1847 143.893 25.599C143.332 23.7156 144.17 19.7342 146.421 13.6339C145.154 13.5231 144.468 13.3015 144.357 12.9761C144.323 12.8791 144.309 12.7683 144.309 12.6576C144.309 12.5468 144.364 12.4083 144.468 12.2559C144.572 12.1036 144.71 11.9513 144.87 11.8128C145.257 11.4943 145.645 11.335 146.04 11.335H147.342C148.526 8.55145 149.377 6.96578 149.883 6.58494C150.125 6.41184 150.395 6.32184 150.693 6.32184C150.991 6.32184 151.24 6.36337 151.434 6.43954C151.635 6.51571 151.808 6.6265 151.96 6.77191C152.313 7.10428 152.486 7.47127 152.486 7.8798C152.486 8.10138 152.417 8.35064 152.286 8.64146L151.067 11.3004H151.462C152.14 11.3004 152.694 11.2935 153.11 11.2865L154.051 11.2727C154.259 11.2588 154.522 11.2588 154.834 11.2588C155.145 11.2588 155.305 11.3765 155.305 11.605C155.305 13.0591 153.587 13.7793 150.16 13.7793H150.028L148.906 16.6806C147.639 20.115 147.009 22.5177 147.009 23.8887C147.009 24.2765 147.099 24.5742 147.272 24.7889C147.445 25.0035 147.778 25.1074 148.263 25.1074C148.747 25.1074 149.183 25.0243 149.585 24.8581C149.98 24.6919 150.326 24.5119 150.624 24.3042C150.921 24.1034 151.178 23.9164 151.392 23.7502C151.607 23.5702 151.794 23.4871 151.946 23.4871Z" fill="#EC4C67"/>
<path d="M155.284 27.1501C155.007 26.8662 154.785 26.4992 154.612 26.0561C154.439 25.6129 154.356 25.0936 154.356 24.505C154.356 23.9165 154.488 23.1271 154.758 22.1369C155.028 21.1468 155.367 20.0181 155.789 18.7579L157.174 14.6518C159.141 8.93232 160.283 4.51463 160.588 1.38486C160.685 0.463927 161.135 0 161.938 0C162.444 0 162.859 0.117705 163.191 0.360055C163.828 0.844755 164.14 1.38486 164.112 1.97342C164.085 2.56199 163.988 3.28902 163.801 4.14071C163.614 4.99239 163.371 5.92025 163.074 6.93119C162.776 7.93521 162.437 9.00156 162.049 10.1233L159.771 16.8191C158.462 20.6274 157.804 23.0856 157.804 24.1934C157.804 24.7889 158.047 25.0867 158.531 25.0867C158.995 25.0867 159.411 24.9897 159.792 24.7889C160.172 24.5881 160.415 24.4912 160.526 24.4912C160.754 24.4912 160.872 24.6089 160.872 24.8374C160.872 25.8137 160.373 26.6377 159.369 27.2955C158.698 27.7456 158.081 27.9741 157.527 27.9741C156.973 27.9741 156.523 27.9048 156.184 27.7733C155.866 27.6417 155.554 27.434 155.284 27.1501Z" fill="#EC4C67"/>
<path d="M164.078 22.0331C164.119 21.0775 164.278 20.1635 164.555 19.2842C164.832 18.4117 165.199 17.56 165.663 16.7429C166.127 15.9259 166.667 15.1503 167.291 14.4164C167.914 13.6824 168.585 13.0454 169.312 12.4914C170.884 11.3143 172.477 10.7257 174.083 10.7257C175.967 10.7257 177.22 11.5013 177.843 13.0523C178.065 13.5786 178.169 14.2017 178.155 14.9219C178.141 15.642 178.009 16.3067 177.746 16.916C177.483 17.5254 177.116 18.0793 176.652 18.5848C176.181 19.0834 175.627 19.5334 174.983 19.9281C174.339 20.3228 173.64 20.6621 172.878 20.9321C171.314 21.4791 169.645 21.77 167.865 21.7907C167.824 21.9431 167.796 22.1785 167.782 22.4832C167.768 22.7878 167.803 23.1341 167.879 23.5149C167.955 23.8957 168.087 24.235 168.274 24.5258C168.668 25.1836 169.243 25.516 169.991 25.516C171.265 25.516 172.511 25.1421 173.723 24.3943C174.153 24.1381 174.499 23.8819 174.769 23.6118C175.039 23.3418 175.274 23.2102 175.468 23.2102C175.669 23.2102 175.842 23.3279 175.987 23.5634C176.133 23.7988 176.209 24.0688 176.209 24.3666C176.209 24.9482 176.043 25.4537 175.71 25.883C174.326 27.2679 172.262 27.9603 169.52 27.9603C167.907 27.9603 166.605 27.4756 165.629 26.5062C164.528 25.426 164.008 23.9303 164.078 22.0331ZM173.709 12.9277C172.553 12.9277 171.445 13.717 170.379 15.3027C169.479 16.6668 168.752 18.2871 168.198 20.1566C170.033 19.9697 171.632 19.2426 172.982 17.9755C174.222 16.7845 174.845 15.6489 174.845 14.5618C174.845 13.4747 174.471 12.9277 173.709 12.9277Z" fill="#EC4C67"/>
</svg>
